#!OML:ASF I:\Actors\actors\Patient Classification 2\Patient 1\Session 1\actor1.ASF
:FULLY-SPECIFIED
:DEGREES
260
root -0.586693 18.0425 6.14073 0.0123794 -9.96628 -4.99406
lowerback 11.854 -2.13496 4.17832
upperback 1.07769 -2.02134 4.80453
thorax -5.49148 -1.04498 3.0373
lowerneck -19.3435 1.69661 7.10705
upperneck 4.8145 1.23297 -7.03593
head 4.62694 0.267357 -3.24892
rclavicle 4.25399e-014 2.94201e-014
rhumerus -42.9055 4.03647 -58.0148
rradius 79.1478
rwrist -34.5829
rhand -7.54596 -43.5212
rfingers 7.12502
rthumb 18.3457 -72.6761
lclavicle 4.25399e-014 2.94201e-014
lhumerus -31.6738 -25.4489 93.3174
lradius 71.0864
lwrist 17.7275
lhand -8.01155 -23.1561
lfingers 7.12502
lthumb 17.8977 6.04038
rfemur 11.8828 9.55948 20.1256
rtibia -4.1876
rfoot -15.4704 -13.7604
rtoes -0.483986
lfemur 23.1595 3.37246 -13.5187
ltibia -23.4957
lfoot -1.6898 18.0588
ltoes -7.88527
261
root -0.556966 18.0385 6.13883 0.0559131 -9.23081 -5.14953
lowerback 11.9467 -2.09541 4.34009
upperback 1.09018 -1.93651 4.86184
thorax -5.5353 -1.00591 2.99727
lowerneck -19.2774 1.38372 6.86127
upperneck 4.53341 0.860209 -6.96242
head 4.50051 0.0852326 -3.2184
rclavicle 2.59414e-014 -1.51076e-014
rhumerus -43.3597 4.38998 -59.2303
rradius 78.9853
rwrist -34.2679
rhand -7.77044 -43.6965
rfingers 7.12502
rthumb 18.1297 -72.8716
lclavicle 2.59414e-014 -1.51076e-014
lhumerus -32.6303 -24.7705 94.1168
lradius 70.8005
lwrist 17.4132
lhand -7.94994 -22.8771
lfingers 7.12502
lthumb 17.957 6.31391
rfemur 11.8809 8.7742 20.1199
rtibia -4.12755
rfoot -15.4958 -13.6403
rtoes -0.276216
lfemur 23.2071 3.23911 -13.3996
ltibia -24.0613
lfoot -0.990768 17.6026
ltoes -8.86523
262
root -0.524768 18.0338 6.13421 0.108099 -8.46714 -5.27508
lowerback 12.0549 -2.03266 4.46683
upperback 1.0902 -1.82476 4.88575
thorax -5.60107 -0.953237 2.93786
lowerneck -19.1928 0.999622 6.58507
upperneck 4.20397 0.391489 -6.8105
head 4.35018 -0.139088 -3.16519
rclavicle 2.61402e-014 -1.59028e-014
rhumerus -43.7002 4.64126 -60.5224
rradius 78.6816
rwrist -33.7554
rhand -7.87629 -43.9252
rfingers 7.12502
rthumb 18.0279 -73.1097
lclavicle 2.61402e-014 -1.59028e-014
lhumerus -33.6039 -24.0647 94.8593
lradius 70.5305
lwrist 17.0365
lhand -7.98426 -22.5397
lfingers 7.12502
lthumb 17.924 6.65431
rfemur 11.9295 7.96563 20.07
rtibia -4.20715
rfoot -15.4627 -13.5836
rtoes -0.393503
lfemur 23.2486 3.16447 -13.3099
ltibia -24.684
lfoot -0.301086 17.1054
ltoes -9.47099
263
root -0.490512 18.0266 6.12825 0.139175 -7.72522 -5.42202
lowerback 12.2322 -1.92193 4.58746
upperback 1.09001 -1.64334 4.92266
thorax -5.7057 -0.866329 2.8865
lowerneck -19.1263 0.567579 6.29194
upperneck 3.802 -0.139584 -6.66955
head 4.1782 -0.395655 -3.11639
rclavicle -3.44891e-014 1.90833e-014
rhumerus -43.9646 4.82045 -61.7541
rradius 78.3202
rwrist -33.208
rhand -8.20438 -44.2147
rfingers 7.12502
rthumb 17.7122 -73.428
lclavicle -3.44891e-014 1.90833e-014
lhumerus -34.5394 -23.2959 95.5966
lradius 70.208
lwrist 16.563
lhand -8.03242 -22.1724
lfingers 7.12502
lthumb 17.8776 7.02586
rfemur 12.079 7.18136 20.0442
rtibia -4.43706
rfoot -15.3411 -13.5488
rtoes -0.502559
lfemur 23.362 3.14233 -13.1819
ltibia -25.3802
lfoot 0.312983 16.6049
ltoes -9.40707
264
root -0.453699 18.0178 6.12292 0.192119 -6.99659 -5.64228
lowerback 12.3804 -1.77112 4.79978
upperback 1.10646 -1.39806 4.97796
thorax -5.77854 -0.75005 2.78947
lowerneck -19.1252 0.0828723 5.81847
upperneck 3.41407 -0.714125 -6.37017
head 4.02064 -0.667664 -2.99118
rclavicle -5.46658e-015 -1.11319e-014
rhumerus -44.1038 4.83829 -62.8946
rradius 77.8588
rwrist -32.4992
rhand -8.2811 -44.4552
rfingers 7.12502
rthumb 17.6384 -73.6752
lclavicle -5.46658e-015 -1.11319e-014
lhumerus -35.2939 -22.4812 96.2946
lradius 69.786
lwrist 15.9504
lhand -8.00339 -21.7246
lfingers 7.12502
lthumb 17.9056 7.47109
rfemur 12.3165 6.41282 20.0948
rtibia -4.87856
rfoot -15.1297 -13.568
rtoes -0.528677
lfemur 23.5025 3.15047 -12.9796
ltibia -26.1573
lfoot 0.998178 16.0887
ltoes -9.56107
265
root -0.41782 18.0079 6.11699 0.264736 -6.17509 -5.91566
lowerback 12.4889 -1.64594 5.00214
upperback 1.13733 -1.19006 5.06444
thorax -5.8114 -0.651316 2.73487
lowerneck -19.2088 -0.420606 5.20073
upperneck 3.07404 -1.29464 -5.8929
head 3.89607 -0.934842 -2.78754
rclavicle 6.06293e-015 1.03368e-014
rhumerus -44.0754 4.86551 -64.0647
rradius 77.3741
rwrist -31.7065
rhand -8.02184 -44.5326
rfingers 7.12502
rthumb 17.8878 -73.73
lclavicle 6.06293e-015 1.03368e-014
lhumerus -35.8956 -21.573 96.8876
lradius 69.2967
lwrist 15.2591
lhand -7.86643 -21.2241
lfingers 7.12502
lthumb 18.0374 7.95949
rfemur 12.6215 5.55373 20.2033
rtibia -5.47723
rfoot -14.8587 -13.6423
rtoes -0.605919
lfemur 23.6303 3.25701 -12.6981
ltibia -27.028
lfoot 1.89762 15.4365
ltoes -10.2743
266
root -0.385416 17.9944 6.1116 0.29391 -5.29177 -6.17875
lowerback 12.649 -1.55038 5.10121
upperback 1.16829 -1.03087 5.14613
thorax -5.86991 -0.574277 2.74314
lowerneck -19.2156 -0.893397 4.67233
upperneck 2.56992 -1.85429 -5.41327
head 3.71568 -1.18927 -2.59282
rclavicle 6.26172e-015 -2.14687e-014
rhumerus -43.9186 5.01946 -65.3472
rradius 76.8899
rwrist -30.9427
rhand -7.95497 -44.5115
rfingers 7.12502
rthumb 17.9522 -73.7029
lclavicle 6.26172e-015 -2.14687e-014
lhumerus -36.478 -20.5494 97.3142
lradius 68.8214
lwrist 14.595
lhand -7.67244 -20.8581
lfingers 7.12502
lthumb 18.224 8.30819
rfemur 13.0818 4.63517 20.3157
rtibia -6.24224
rfoot -14.5325 -13.7405
rtoes -0.710963
lfemur 23.8407 3.40701 -12.4047
ltibia -28.0138
lfoot 2.92869 14.7184
ltoes -11.0997
267
root -0.354549 17.9796 6.10482 0.326777 -4.47223 -6.42695
lowerback 12.7821 -1.41128 5.14251
upperback 1.23013 -0.828205 5.19999
thorax -5.88011 -0.47434 2.74385
lowerneck -19.1291 -1.38619 4.20618
upperneck 1.84709 -2.45512 -4.92198
head 3.45694 -1.46205 -2.40323
rclavicle 1.58034e-014 -2.3059e-014
rhumerus -43.5331 5.21103 -66.6296
rradius 76.2962
rwrist -30.1044
rhand -7.99775 -44.6523
rfingers 7.12502
rthumb 17.911 -73.8475
lclavicle 1.58034e-014 -2.3059e-014
lhumerus -36.9392 -19.565 97.5557
lradius 68.4035
lwrist 14.0676
lhand -7.40497 -20.4829
lfingers 7.12502
lthumb 18.4813 8.65921
rfemur 13.6879 3.78344 20.425
rtibia -7.33767
rfoot -14.03 -13.9533
rtoes -1.07673
lfemur 24.1196 3.5712 -12.1388
ltibia -29.1101
lfoot 4.00195 14.0272
ltoes -11.5881
268
root -0.32357 17.9621 6.09151 0.392081 -3.70796 -6.72519
lowerback 12.9282 -1.22981 5.23392
upperback 1.2975 -0.56215 5.24077
thorax -5.89284 -0.344704 2.69076
lowerneck -18.9698 -1.95292 3.69251
upperneck 0.998135 -3.14587 -4.3303
head 3.15287 -1.77453 -2.17759
rclavicle 7.15625e-015 -2.94201e-014
rhumerus -42.9251 5.52936 -67.8129
rradius 75.6654
rwrist -29.1895
rhand -7.88322 -45.1293
rfingers 7.12502
rthumb 18.0212 -74.3144
lclavicle 7.15625e-015 -2.94201e-014
lhumerus -37.2708 -18.7155 97.651
lradius 68.0137
lwrist 13.6323
lhand -7.06024 -20.0501
lfingers 7.12502
lthumb 18.8129 9.06018
rfemur 14.409 2.99091 20.595
rtibia -8.82078
rfoot -13.3296 -14.3216
rtoes -1.4964
lfemur 24.3951 3.80729 -11.8227
ltibia -30.2898
lfoot 5.14924 13.3683
ltoes -11.7324
